<svg width="25" height="24" viewBox="0 0 25 24" fill="none" xmlns="http://www.w3.org/2000/svg">
<path d="M5.16675 12H5.17675M12.1667 12H12.1767M19.1667 12H19.1767M6.16675 12C6.16675 12.5523 5.71903 13 5.16675 13C4.61446 13 4.16675 12.5523 4.16675 12C4.16675 11.4477 4.61446 11 5.16675 11C5.71903 11 6.16675 11.4477 6.16675 12ZM13.1667 12C13.1667 12.5523 12.719 13 12.1667 13C11.6145 13 11.1667 12.5523 11.1667 12C11.1667 11.4477 11.6145 11 12.1667 11C12.719 11 13.1667 11.4477 13.1667 12ZM20.1667 12C20.1667 12.5523 19.719 13 19.1667 13C18.6145 13 18.1667 12.5523 18.1667 12C18.1667 11.4477 18.6145 11 19.1667 11C19.719 11 20.1667 11.4477 20.1667 12Z" stroke="white" stroke-width="2" stroke-linecap="round" stroke-linejoin="round"/>
</svg>
