<svg width="24" height="24" viewBox="0 0 24 24" fill="none" xmlns="http://www.w3.org/2000/svg">
<path d="M17.4809 8.00024C17.4656 8.09788 17.4481 8.1977 17.4285 8.30024C16.7538 11.7644 14.4454 12.9612 11.4972 12.9612H9.99612C9.63558 12.9612 9.33176 13.223 9.27558 13.5786L8.50703 18.4528L8.2894 19.8344C8.25285 20.0679 8.43285 20.2784 8.66849 20.2784H11.3308C11.6461 20.2784 11.9139 20.0493 11.9636 19.7384L11.9898 19.6032L12.491 16.4221L12.5232 16.2475C12.5723 15.9355 12.8407 15.7064 13.1559 15.7064H13.5541C16.1336 15.7064 18.1529 14.6592 18.743 11.6286C18.9896 10.3626 18.8619 9.30552 18.2096 8.56206C18.0121 8.33788 17.7672 8.15188 17.4809 8.00024Z" fill="#179BD7"/>
<path d="M16.7748 7.71874C16.6718 7.68874 16.5654 7.66147 16.4563 7.63693C16.3467 7.61293 16.2343 7.59165 16.1187 7.57311C15.7139 7.50765 15.2705 7.47656 14.7954 7.47656H10.7852C10.6865 7.47656 10.5927 7.49893 10.5087 7.53929C10.3238 7.6282 10.1863 7.80329 10.153 8.01765L9.29994 13.4209L9.27539 13.5786C9.33157 13.2229 9.63539 12.9611 9.99594 12.9611H11.497C14.4452 12.9611 16.7536 11.7638 17.4283 8.3002C17.4485 8.19765 17.4654 8.09784 17.4807 8.0002C17.3099 7.90965 17.125 7.8322 16.9259 7.7662C16.8768 7.74984 16.8261 7.73402 16.7748 7.71874Z" fill="#222D65"/>
<path d="M10.1531 8.01757C10.1863 7.80321 10.3238 7.62812 10.5087 7.53975C10.5932 7.49939 10.6865 7.47702 10.7852 7.47702H14.7954C15.2705 7.47702 15.714 7.50812 16.1187 7.57357C16.2343 7.59212 16.3467 7.61339 16.4563 7.63739C16.5654 7.66193 16.6718 7.68921 16.7749 7.71921C16.8261 7.73448 16.8769 7.7503 16.9265 7.76612C17.1256 7.83212 17.3105 7.91012 17.4812 8.00012C17.682 6.71993 17.4796 5.8483 16.7874 5.05902C16.0243 4.19012 14.6471 3.81812 12.8847 3.81812H7.76832C7.40832 3.81812 7.10123 4.07993 7.0456 4.43612L4.91451 17.9443C4.87251 18.2116 5.07869 18.4527 5.34814 18.4527H8.50687L9.29996 13.4208L10.1531 8.01757Z" fill="#253B80"/>
</svg>
