<svg width="141" height="141" viewBox="0 0 141 141" fill="none" xmlns="http://www.w3.org/2000/svg">
<path d="M102.7 47.002C102.61 47.5756 102.507 48.162 102.392 48.7645C98.428 69.1165 84.8664 76.1473 67.5458 76.1473H58.7269C56.6087 76.1473 54.8238 77.6855 54.4937 79.7748L49.9785 108.411L48.6999 116.528C48.4852 117.899 49.5427 119.136 50.9271 119.136H66.5684C68.4207 119.136 69.9941 117.79 70.2857 115.964L70.4395 115.169L73.3845 96.4801L73.5736 95.4547C73.862 93.6217 75.4386 92.2758 77.2908 92.2758H79.6302C94.7845 92.2758 106.648 86.123 110.115 68.3186C111.563 60.8808 110.814 54.6704 106.981 50.3026C105.821 48.9856 104.382 47.8928 102.7 47.002Z" fill="#179BD7"/>
<path d="M98.5522 45.3466C97.9466 45.1704 97.3217 45.0102 96.6808 44.866C96.0366 44.725 95.3765 44.6 94.6971 44.491C92.3194 44.1065 89.7141 43.9238 86.9229 43.9238H63.3631C62.7831 43.9238 62.2319 44.0552 61.7384 44.2924C60.6521 44.8147 59.8445 45.8434 59.649 47.1027L54.6371 78.847L54.4929 79.7731C54.823 77.6837 56.6079 76.1455 58.7261 76.1455H67.545C84.8656 76.1455 98.4272 69.1116 102.391 48.7627C102.51 48.1602 102.609 47.5738 102.699 47.0002C101.696 46.4682 100.61 46.0132 99.4399 45.6254C99.1515 45.5293 98.8534 45.4364 98.5522 45.3466Z" fill="#222D65"/>
<path d="M59.6493 47.1034C59.8448 45.844 60.6523 44.8154 61.7386 44.2963C62.2354 44.0591 62.7833 43.9277 63.3633 43.9277H86.9232C89.7143 43.9277 92.3196 44.1104 94.6974 44.4949C95.3768 44.6039 96.0369 44.7289 96.681 44.8699C97.3219 45.0141 97.9468 45.1743 98.5525 45.3505C98.8537 45.4403 99.1517 45.5332 99.4433 45.6261C100.613 46.0139 101.699 46.4721 102.702 47.0009C103.882 39.4798 102.693 34.359 98.6262 29.722C94.143 24.6171 86.0515 22.4316 75.6976 22.4316H45.639C43.524 22.4316 41.7199 23.9698 41.393 26.0624L28.8728 105.423C28.6261 106.993 29.8374 108.41 31.4204 108.41H49.978L54.6374 78.8477L59.6493 47.1034Z" fill="#253B80"/>
</svg>
