<svg width="16" height="15" viewBox="0 0 16 15" fill="none" xmlns="http://www.w3.org/2000/svg">
<path fill-rule="evenodd" clip-rule="evenodd" d="M0.010848 7.30562L3.52392 8.73857C3.96332 8.48628 4.47264 8.34199 5.01567 8.34199C5.11104 8.34199 5.20532 8.3465 5.29839 8.35519L7.83716 4.74112V4.73858C7.83716 3.61159 8.29402 2.59125 9.03265 1.85262C9.77127 1.114 10.7916 0.657135 11.9186 0.657135C13.0456 0.657135 14.0659 1.114 14.8046 1.85262C15.5432 2.59125 16 3.61163 16 4.73858C16 5.86557 15.5432 6.88591 14.8046 7.62453C14.0659 8.36316 13.0456 8.82002 11.9186 8.82002C11.9043 8.82002 11.8899 8.81988 11.8756 8.81974L7.9995 11.6589C7.92586 12.361 7.61012 12.9911 7.13722 13.464C6.59425 14.007 5.84415 14.3429 5.01562 14.3429C4.18709 14.3429 3.43704 14.007 2.89402 13.464C2.49768 13.0677 2.2117 12.561 2.08613 11.994L0 11.1595L0.0108 7.30562H0.010848ZM4.58722 9.1723L5.51684 9.55145C7.43785 10.335 6.58244 13.4135 4.22194 12.8482L3.0649 12.3854C3.168 12.5779 3.29866 12.7532 3.45173 12.9063C3.85191 13.3065 4.40487 13.554 5.01562 13.554C5.62637 13.554 6.17933 13.3065 6.57951 12.9063C6.97969 12.5061 7.22722 11.9532 7.22722 11.3424C7.22722 10.7317 6.97969 10.1787 6.57951 9.77854C6.17933 9.37836 5.62642 9.13082 5.01562 9.13082C4.86903 9.13082 4.7258 9.14513 4.58722 9.17234V9.1723ZM11.9039 2.71389C13.0339 2.71389 13.9499 3.62992 13.9499 4.75984C13.9499 5.88981 13.0338 6.8058 11.9039 6.8058C10.7739 6.8058 9.85796 5.88981 9.85796 4.75984C9.85796 3.62987 10.7739 2.71389 11.9039 2.71389ZM13.8099 2.84723C13.326 2.36325 12.6572 2.06387 11.9186 2.06387C11.1799 2.06387 10.5112 2.36325 10.0272 2.84723C9.54318 3.33122 9.2438 3.99995 9.2438 4.73863C9.2438 5.4773 9.54318 6.14599 10.0272 6.63002C10.5111 7.11401 11.1799 7.41338 11.9186 7.41338C12.6572 7.41338 13.326 7.11401 13.8099 6.63002C14.2939 6.14604 14.5933 5.4773 14.5933 4.73863C14.5933 3.99995 14.2939 3.33122 13.8099 2.84723Z" fill="white"/>
</svg>
