<svg width="157" height="67" viewBox="0 0 157 67" fill="none" xmlns="http://www.w3.org/2000/svg">
<path fill-rule="evenodd" clip-rule="evenodd" d="M156.577 34.4374C156.577 23.277 151.198 14.4707 140.918 14.4707C130.595 14.4707 124.349 23.277 124.349 34.3503C124.349 47.4725 131.723 54.099 142.306 54.099C147.468 54.099 151.372 52.9219 154.321 51.2653V42.5462C151.372 44.0285 147.989 44.944 143.694 44.944C139.487 44.944 135.757 43.4617 135.279 38.3174H156.49C156.49 37.7507 156.577 35.4837 156.577 34.4374ZM135.149 30.2959C135.149 25.3696 138.142 23.3206 140.875 23.3206C143.521 23.3206 146.34 25.3696 146.34 30.2959H135.149Z" fill="#635BFF"/>
<path fill-rule="evenodd" clip-rule="evenodd" d="M107.605 14.4707C103.355 14.4707 100.622 16.4761 99.1037 17.8712L98.5398 15.1682H88.9971V66.0006L99.8411 63.69L99.8845 51.3525C101.446 52.486 103.745 54.099 107.562 54.099C115.326 54.099 122.397 47.8213 122.397 34.0015C122.353 21.3588 115.196 14.4707 107.605 14.4707ZM105.003 44.508C102.444 44.508 100.925 43.5925 99.8845 42.459L99.8411 26.2851C100.969 25.0208 102.53 24.1489 105.003 24.1489C108.95 24.1489 111.683 28.5956 111.683 34.3067C111.683 40.1485 108.993 44.508 105.003 44.508Z" fill="#635BFF"/>
<path fill-rule="evenodd" clip-rule="evenodd" d="M74.0757 11.8994L84.9631 9.5452V0.695312L74.0757 3.00587V11.8994Z" fill="#635BFF"/>
<path d="M84.9631 15.2129H74.0757V53.359H84.9631V15.2129Z" fill="#635BFF"/>
<path fill-rule="evenodd" clip-rule="evenodd" d="M62.4075 18.4384L61.7135 15.2123H52.3442V53.3584H63.1883V27.5063C65.7474 24.1494 70.0851 24.7598 71.4297 25.2393V15.2123C70.0417 14.6892 64.9667 13.7301 62.4075 18.4384Z" fill="#635BFF"/>
<path fill-rule="evenodd" clip-rule="evenodd" d="M40.7194 5.75195L30.1357 8.01892L30.0923 42.9389C30.0923 49.3911 34.907 54.143 41.3267 54.143C44.8835 54.143 47.4861 53.489 48.9175 52.7043V43.8544C47.5295 44.4212 40.676 46.4266 40.676 39.9744V24.498H48.9175V15.2122H40.676L40.7194 5.75195Z" fill="#635BFF"/>
<path fill-rule="evenodd" clip-rule="evenodd" d="M11.3972 26.2851C11.3972 24.5849 12.7853 23.9309 15.0842 23.9309C18.3808 23.9309 22.5449 24.9336 25.8415 26.721V16.4761C22.2413 15.0374 18.6844 14.4707 15.0842 14.4707C6.27887 14.4707 0.423096 19.0918 0.423096 26.8082C0.423096 38.8406 16.906 36.9224 16.906 42.1103C16.906 44.1157 15.171 44.7696 12.7419 44.7696C9.14169 44.7696 4.54382 43.2873 0.900232 41.2819V51.6577C4.93421 53.4015 9.01156 54.1426 12.7419 54.1426C21.7641 54.1426 27.9669 49.6523 27.9669 41.8487C27.9235 28.8572 11.3972 31.1678 11.3972 26.2851Z" fill="#635BFF"/>
</svg>
