<svg width="13" height="13" viewBox="0 0 13 13" fill="none" xmlns="http://www.w3.org/2000/svg">
<path d="M1.16797 2.50033C1.16797 1.76395 1.76492 1.16699 2.5013 1.16699H3.83464C4.57102 1.16699 5.16797 1.76395 5.16797 2.50033V3.83366C5.16797 4.57004 4.57102 5.16699 3.83464 5.16699H2.5013C1.76492 5.16699 1.16797 4.57004 1.16797 3.83366V2.50033Z" stroke="#9DB4D3" stroke-width="1.33333" stroke-linecap="round" stroke-linejoin="round"/>
<path d="M7.83464 2.50033C7.83464 1.76395 8.43159 1.16699 9.16797 1.16699H10.5013C11.2377 1.16699 11.8346 1.76395 11.8346 2.50033V3.83366C11.8346 4.57004 11.2377 5.16699 10.5013 5.16699H9.16797C8.43159 5.16699 7.83464 4.57004 7.83464 3.83366V2.50033Z" stroke="#9DB4D3" stroke-width="1.33333" stroke-linecap="round" stroke-linejoin="round"/>
<path d="M1.16797 9.16699C1.16797 8.43061 1.76492 7.83366 2.5013 7.83366H3.83464C4.57102 7.83366 5.16797 8.43061 5.16797 9.16699V10.5003C5.16797 11.2367 4.57102 11.8337 3.83464 11.8337H2.5013C1.76492 11.8337 1.16797 11.2367 1.16797 10.5003V9.16699Z" stroke="#9DB4D3" stroke-width="1.33333" stroke-linecap="round" stroke-linejoin="round"/>
<path d="M7.83464 9.16699C7.83464 8.43061 8.43159 7.83366 9.16797 7.83366H10.5013C11.2377 7.83366 11.8346 8.43061 11.8346 9.16699V10.5003C11.8346 11.2367 11.2377 11.8337 10.5013 11.8337H9.16797C8.43159 11.8337 7.83464 11.2367 7.83464 10.5003V9.16699Z" stroke="#9DB4D3" stroke-width="1.33333" stroke-linecap="round" stroke-linejoin="round"/>
</svg>
