<svg width="36" height="36" viewBox="0 0 36 36" fill="none" xmlns="http://www.w3.org/2000/svg">
<g clip-path="url(#clip0_3713_1344)">
<path d="M18.0028 36.0056C27.9454 36.0056 36.0056 27.9454 36.0056 18.0028C36.0056 8.06012 27.9454 0 18.0028 0C8.06012 0 0 8.06012 0 18.0028C0 27.9454 8.06012 36.0056 18.0028 36.0056Z" fill="#4267B2"/>
<path d="M19.2755 15.146V13.7231C19.2644 13.5565 19.2644 13.3894 19.2755 13.2229C19.2999 13.1003 19.3471 12.9834 19.4145 12.8783C19.4935 12.7599 19.6148 12.6764 19.7535 12.6448C19.9591 12.5951 20.1702 12.5727 20.3816 12.5781H21.81V9.72681H19.5312C18.2084 9.72681 17.2635 10.0381 16.6855 10.6661C16.0558 11.4495 15.7478 12.4431 15.8239 13.4452V15.1627H14.1454V18.0195H15.8517V26.2734H19.2755V18.0029H21.5544L21.8545 15.146H19.2755Z" fill="white"/>
</g>
<defs>
<clipPath id="clip0_3713_1344">
<rect width="36" height="36" fill="white"/>
</clipPath>
</defs>
</svg>
