<svg width="36" height="36" viewBox="0 0 36 36" fill="none" xmlns="http://www.w3.org/2000/svg">
<g clip-path="url(#clip0_3713_1338)">
<path d="M18.0028 36.0056C27.9454 36.0056 36.0056 27.9454 36.0056 18.0028C36.0056 8.06012 27.9454 0 18.0028 0C8.06012 0 0 8.06012 0 18.0028C0 27.9454 8.06012 36.0056 18.0028 36.0056Z" fill="url(#paint0_linear_3713_1338)"/>
<path d="M21.999 8.45947H14.0009C12.5268 8.45947 11.113 9.04506 10.0707 10.0874C9.02834 11.1298 8.44275 12.5435 8.44275 14.0176V21.9991C8.44275 23.4732 9.02834 24.8869 10.0707 25.9293C11.113 26.9716 12.5268 27.5572 14.0009 27.5572H21.999C23.4731 27.5572 24.8869 26.9716 25.9292 25.9293C26.9716 24.8869 27.5572 23.4732 27.5572 21.9991V14.0009C27.5527 12.5297 26.9652 11.1203 25.9233 10.0815C24.8815 9.04276 23.4703 8.45947 21.999 8.45947ZM26.0509 21.9991C26.0494 23.0733 25.6221 24.103 24.8625 24.8626C24.103 25.6221 23.0732 26.0495 21.999 26.051H14.0009C12.9267 26.0495 11.8969 25.6221 11.1374 24.8626C10.3778 24.103 9.95047 23.0733 9.949 21.9991V14.0009C9.95047 12.9268 10.3778 11.897 11.1374 11.1374C11.8969 10.3779 12.9267 9.95052 14.0009 9.94905H21.999C23.0732 9.95052 24.103 10.3779 24.8625 11.1374C25.6221 11.897 26.0494 12.9268 26.0509 14.0009V21.9991ZM18.0027 12.856C16.9845 12.8549 15.9889 13.1558 15.1418 13.7206C14.2947 14.2855 13.6341 15.089 13.2437 16.0293C12.8533 16.9697 12.7506 18.0047 12.9486 19.0035C13.1465 20.0022 13.6363 20.9198 14.3559 21.6402C15.0754 22.3605 15.9925 22.8513 16.991 23.0503C17.9896 23.2493 19.0247 23.1477 19.9655 22.7584C20.9063 22.369 21.7104 21.7093 22.2762 20.8628C22.842 20.0163 23.144 19.021 23.144 18.0028C23.1425 16.6392 22.6006 15.3317 21.6369 14.367C20.6732 13.4023 19.3663 12.8589 18.0027 12.856ZM18.0027 21.6545C17.2799 21.6512 16.5742 21.4337 15.9749 21.0296C15.3755 20.6255 14.9094 20.0529 14.6353 19.384C14.3612 18.7151 14.2914 17.98 14.4349 17.2715C14.5783 16.563 14.9285 15.9129 15.4412 15.4034C15.9539 14.8938 16.6061 14.5475 17.3154 14.4084C18.0248 14.2693 18.7594 14.3434 19.4267 14.6216C20.0939 14.8997 20.6637 15.3694 21.0641 15.9712C21.4646 16.573 21.6777 17.2799 21.6767 18.0028C21.6789 18.4859 21.5853 18.9646 21.4015 19.4113C21.2176 19.8581 20.9471 20.264 20.6055 20.6056C20.2639 20.9472 19.858 21.2177 19.4113 21.4015C18.9646 21.5854 18.4858 21.6789 18.0027 21.6767V21.6545ZM23.2218 12.0333C23.0732 12.0322 22.9276 12.0753 22.8034 12.1571C22.6793 12.2389 22.5823 12.3557 22.5246 12.4927C22.467 12.6297 22.4513 12.7807 22.4797 12.9266C22.508 13.0726 22.579 13.2068 22.6837 13.3123C22.7884 13.4178 22.9221 13.4898 23.0678 13.5192C23.2135 13.5486 23.3647 13.5341 23.5021 13.4774C23.6395 13.4208 23.7571 13.3247 23.8398 13.2011C23.9224 13.0776 23.9666 12.9323 23.9666 12.7837C23.9673 12.6854 23.9486 12.588 23.9115 12.497C23.8744 12.406 23.8197 12.3232 23.7504 12.2535C23.6812 12.1837 23.5988 12.1283 23.5081 12.0906C23.4174 12.0528 23.3201 12.0333 23.2218 12.0333Z" fill="white"/>
</g>
<defs>
<linearGradient id="paint0_linear_3713_1338" x1="4.75776" y1="27.3126" x2="28.6855" y2="10.4882" gradientUnits="userSpaceOnUse">
<stop stop-color="#FFB34E"/>
<stop offset="0.3" stop-color="#F9684D"/>
<stop offset="0.43" stop-color="#E8476D"/>
<stop offset="0.52" stop-color="#D94089"/>
<stop offset="0.6" stop-color="#D03C9B"/>
<stop offset="0.66" stop-color="#CD3AA1"/>
<stop offset="0.71" stop-color="#C13DA5"/>
<stop offset="0.8" stop-color="#A345AF"/>
<stop offset="0.93" stop-color="#7153C0"/>
<stop offset="1" stop-color="#525BCB"/>
</linearGradient>
<clipPath id="clip0_3713_1338">
<rect width="36" height="36" fill="white"/>
</clipPath>
</defs>
</svg>
