<svg width="16" height="16" viewBox="0 0 16 16" fill="none" xmlns="http://www.w3.org/2000/svg">
<path fill-rule="evenodd" clip-rule="evenodd" d="M2.19148 7.85539L4.74644 8.92146C5.066 8.73377 5.43642 8.62642 5.83134 8.62642C5.90071 8.62642 5.96927 8.62978 6.03696 8.63624L7.88333 5.94747V5.94558C7.88333 5.10713 8.21559 4.34802 8.75277 3.7985C9.28995 3.24899 10.032 2.90909 10.8516 2.90909C11.6713 2.90909 12.4133 3.24899 12.9505 3.7985C13.4877 4.34802 13.82 5.10716 13.82 5.94558C13.82 6.78403 13.4877 7.54314 12.9505 8.09265C12.4133 8.64217 11.6713 8.98207 10.8516 8.98207C10.8412 8.98207 10.8308 8.98196 10.8204 8.98185L8.00139 11.0941C7.94784 11.6165 7.71821 12.0853 7.37429 12.4371C6.9794 12.841 6.43387 13.0909 5.83131 13.0909C5.22874 13.0909 4.68325 12.841 4.28833 12.4371C4.00008 12.1422 3.7921 11.7653 3.70077 11.3434L2.18359 10.7226L2.19145 7.85539H2.19148ZM5.51974 9.24415L6.19583 9.52623C7.59292 10.1092 6.97081 12.3995 5.25409 11.9789L4.4126 11.6346C4.48759 11.7778 4.58261 11.9083 4.69394 12.0222C4.98497 12.3199 5.38713 12.504 5.83131 12.504C6.27549 12.504 6.67764 12.3199 6.96868 12.0222C7.25971 11.7244 7.43974 11.313 7.43974 10.8587C7.43974 10.4043 7.25971 9.99289 6.96868 9.69517C6.67764 9.39745 6.27552 9.21329 5.83131 9.21329C5.7247 9.21329 5.62053 9.22393 5.51974 9.24418V9.24415ZM10.841 4.43926C11.6628 4.43926 12.3289 5.12077 12.3289 5.9614C12.3289 6.80207 11.6627 7.48353 10.841 7.48353C10.0192 7.48353 9.353 6.80207 9.353 5.9614C9.353 5.12073 10.0192 4.43926 10.841 4.43926ZM12.2272 4.53847C11.8752 4.1784 11.3888 3.95567 10.8516 3.95567C10.3144 3.95567 9.82808 4.1784 9.47605 4.53847C9.12407 4.89854 8.90634 5.39606 8.90634 5.94561C8.90634 6.49517 9.12407 6.99265 9.47605 7.35276C9.82804 7.71283 10.3144 7.93556 10.8516 7.93556C11.3888 7.93556 11.8752 7.71283 12.2272 7.35276C12.5792 6.99269 12.7969 6.49517 12.7969 5.94561C12.7969 5.39606 12.5792 4.89854 12.2272 4.53847Z" fill="#FFC700"/>
</svg>
