<svg width="40" height="18" viewBox="0 0 40 18" fill="none" xmlns="http://www.w3.org/2000/svg">
<path fill-rule="evenodd" clip-rule="evenodd" d="M39.2309 9.23173C39.2309 6.47038 37.9061 4.2915 35.374 4.2915C32.8313 4.2915 31.2928 6.47038 31.2928 9.21016C31.2928 12.4569 33.1091 14.0964 35.7159 14.0964C36.9873 14.0964 37.9488 13.8052 38.6753 13.3953V11.238C37.9488 11.6048 37.1155 11.8313 36.0578 11.8313C35.0215 11.8313 34.1027 11.4645 33.9852 10.1917H39.2095C39.2095 10.0515 39.2309 9.4906 39.2309 9.23173ZM33.9531 8.20701C33.9531 6.98813 34.6903 6.48117 35.3634 6.48117C36.0151 6.48117 36.7095 6.98813 36.7095 8.20701H33.9531Z" fill="#635BFF"/>
<path fill-rule="evenodd" clip-rule="evenodd" d="M27.1689 4.2915C26.1219 4.2915 25.4488 4.78768 25.0749 5.13285L24.936 4.46409H22.5856V17.0412L25.2565 16.4695L25.2672 13.4169C25.6518 13.6973 26.218 14.0964 27.1582 14.0964C29.0706 14.0964 30.8121 12.5432 30.8121 9.12386C30.8014 5.99577 29.0386 4.2915 27.1689 4.2915ZM26.5279 11.7234C25.8975 11.7234 25.5236 11.4969 25.2672 11.2164L25.2565 7.21465C25.5343 6.90184 25.9189 6.68611 26.5279 6.68611C27.5001 6.68611 28.1732 7.78634 28.1732 9.19937C28.1732 10.6448 27.5108 11.7234 26.5279 11.7234Z" fill="#635BFF"/>
<path fill-rule="evenodd" clip-rule="evenodd" d="M18.9103 3.65519L21.5919 3.07272V0.883057L18.9103 1.45474V3.65519Z" fill="#635BFF"/>
<path d="M21.5919 4.47485H18.9103V13.9131H21.5919V4.47485Z" fill="#635BFF"/>
<path fill-rule="evenodd" clip-rule="evenodd" d="M16.0364 5.27322L15.8654 4.47502H13.5577V13.9132H16.2287V7.51682C16.859 6.68626 17.9274 6.83727 18.2586 6.95592V4.47502C17.9167 4.34558 16.6667 4.10828 16.0364 5.27322Z" fill="#635BFF"/>
<path fill-rule="evenodd" clip-rule="evenodd" d="M10.6945 2.13428L8.08771 2.69518L8.07703 11.3352C8.07703 12.9316 9.26292 14.1073 10.8441 14.1073C11.7202 14.1073 12.3612 13.9455 12.7138 13.7514V11.5617C12.3719 11.7019 10.6839 12.1981 10.6839 10.6017V6.77248H12.7138V4.47495H10.6839L10.6945 2.13428Z" fill="#635BFF"/>
<path fill-rule="evenodd" clip-rule="evenodd" d="M3.47228 7.21465C3.47228 6.79398 3.81416 6.63218 4.3804 6.63218C5.19236 6.63218 6.21801 6.88027 7.02997 7.32252V4.78768C6.14322 4.43173 5.26715 4.2915 4.3804 4.2915C2.2116 4.2915 0.769287 5.43488 0.769287 7.34409C0.769287 10.3212 4.82912 9.84656 4.82912 11.1302C4.82912 11.6263 4.40177 11.7881 3.80348 11.7881C2.91672 11.7881 1.78424 11.4214 0.886808 10.9252V13.4924C1.8804 13.9239 2.88467 14.1072 3.80348 14.1072C6.0257 14.1072 7.55348 12.9962 7.55348 11.0654C7.54279 7.85105 3.47228 8.42274 3.47228 7.21465Z" fill="#635BFF"/>
</svg>
