<svg width="36" height="36" viewBox="0 0 36 36" fill="none" xmlns="http://www.w3.org/2000/svg">
<g clip-path="url(#clip0_3713_1341)">
<path d="M18.0028 36.0056C27.9454 36.0056 36.0056 27.9454 36.0056 18.0028C36.0056 8.06012 27.9454 0 18.0028 0C8.06012 0 0 8.06012 0 18.0028C0 27.9454 8.06012 36.0056 18.0028 36.0056Z" fill="#1DA1F2"/>
<path d="M26.4012 12.4613C26.1297 12.5846 25.8513 12.6922 25.5674 12.7836C25.9139 12.3923 26.1734 11.932 26.3289 11.433C26.3472 11.3791 26.3485 11.3208 26.3326 11.2662C26.3167 11.2115 26.2843 11.163 26.24 11.1273C26.1926 11.0946 26.1364 11.077 26.0788 11.077C26.0212 11.077 25.965 11.0946 25.9176 11.1273C25.2904 11.4844 24.6088 11.7361 23.9 11.8721C23.3674 11.3536 22.6938 11.0035 21.9635 10.8653C21.2331 10.7271 20.4782 10.8071 19.7929 11.0951C19.1077 11.3832 18.5225 11.8667 18.1102 12.4852C17.698 13.1038 17.477 13.83 17.4748 14.5733C17.4747 14.737 17.4858 14.9004 17.5082 15.0625C16.2264 14.9459 14.9809 14.5741 13.845 13.9689C12.7091 13.3637 11.7057 12.5374 10.894 11.5386C10.8633 11.5047 10.8254 11.4781 10.7831 11.4608C10.7408 11.4435 10.6951 11.4359 10.6494 11.4386C10.6038 11.4416 10.5596 11.4559 10.5209 11.4802C10.4821 11.5044 10.4499 11.5379 10.4271 11.5775C10.0922 12.1551 9.91585 12.8108 9.91576 13.4784C9.91305 14.3752 10.2326 15.2431 10.8162 15.924C10.6414 15.8647 10.4722 15.7903 10.3104 15.7016C10.2671 15.6773 10.2183 15.6645 10.1687 15.6645C10.119 15.6645 10.0702 15.6773 10.0269 15.7016C9.98492 15.7259 9.95 15.7607 9.92562 15.8026C9.90124 15.8446 9.88826 15.8922 9.88797 15.9406V15.9907C9.8883 16.6459 10.0585 17.2899 10.3819 17.8597C10.7053 18.4296 11.1709 18.9059 11.7333 19.2422L11.4498 19.1977C11.4013 19.189 11.3513 19.1929 11.3047 19.209C11.258 19.2251 11.2163 19.2528 11.1834 19.2896C11.1506 19.3264 11.1277 19.3709 11.1169 19.4191C11.1061 19.4672 11.1078 19.5173 11.1219 19.5645C11.3253 20.1913 11.6887 20.7541 12.176 21.1976C12.6633 21.6411 13.2579 21.9499 13.9009 22.0935C12.8322 22.7652 11.5949 23.1198 10.3326 23.1162C10.065 23.1165 9.79771 23.0998 9.53225 23.0662C9.46834 23.0598 9.40414 23.075 9.34978 23.1092C9.29543 23.1434 9.25403 23.1948 9.23211 23.2551C9.21041 23.3151 9.20958 23.3807 9.22976 23.4412C9.24993 23.5017 9.28992 23.5537 9.34327 23.5886C10.9866 24.644 12.8984 25.2054 14.8514 25.206C16.2836 25.2383 17.7056 24.9564 19.0173 24.3803C20.329 23.8041 21.4985 22.9477 22.4438 21.8712C24.1118 19.9709 25.0427 17.5353 25.0672 15.0069C25.0672 14.9068 25.0672 14.8012 25.0672 14.6956C25.7186 14.1959 26.2822 13.591 26.7347 12.9059C26.7688 12.8549 26.7854 12.7942 26.7821 12.7329C26.7787 12.6716 26.7555 12.613 26.7161 12.566C26.6766 12.519 26.6229 12.4861 26.5631 12.4722C26.5033 12.4584 26.4406 12.4643 26.3845 12.4891L26.4012 12.4613Z" fill="white"/>
</g>
<defs>
<clipPath id="clip0_3713_1341">
<rect width="36" height="36" fill="white"/>
</clipPath>
</defs>
</svg>
